<svg width="88" height="76" viewBox="0 0 88 76" fill="none" xmlns="http://www.w3.org/2000/svg">
<g clip-path="url(#clip0_12_6)">
<path d="M19.5361 35.593C17.9496 33.6799 18.2143 30.843 20.1274 29.2565L51.3019 3.40314C53.215 1.81665 56.0519 2.08136 57.6384 3.99439C59.2249 5.90741 58.9602 8.74433 57.0471 10.3308L29.3364 33.3116L52.3172 61.0223C53.9037 62.9353 53.639 65.7723 51.7259 67.3588C49.8129 68.9452 46.976 68.6805 45.3895 66.7675L19.5361 35.593ZM23.99 37.3323L22.5819 37.2009L23.418 28.2398L24.8261 28.3712L23.99 37.3323Z" fill="black" fill-opacity="0.76"/>
<g filter="url(#filter0_d_12_6)">
<path d="M20.7939 35.511C19.2075 33.5979 19.4722 30.761 21.3852 29.1745L52.5598 3.32114C54.4728 1.73465 57.3097 1.99936 58.8962 3.91239C60.4827 5.82541 60.218 8.66233 58.3049 10.2488L30.5942 33.2296L53.575 60.9403C55.1615 62.8533 54.8968 65.6903 52.9838 67.2768C51.0707 68.8632 48.2338 68.5985 46.6473 66.6855L20.7939 35.511ZM25.2478 37.2503L23.8397 37.1189L24.6759 28.1578L26.084 28.2892L25.2478 37.2503Z" fill="white"/>
</g>
</g>
<defs>
<filter id="filter0_d_12_6" x="16.7577" y="-1.71513" width="48.1748" height="74.0282" filterUnits="userSpaceOnUse" color-interpolation-filters="sRGB">
<feFlood flood-opacity="0" result="BackgroundImageFix"/>
<feColorMatrix in="SourceAlpha" type="matrix" values="0 0 0 0 0 0 0 0 0 0 0 0 0 0 0 0 0 0 127 0" result="hardAlpha"/>
<feOffset dx="1"/>
<feGaussianBlur stdDeviation="2"/>
<feComposite in2="hardAlpha" operator="out"/>
<feColorMatrix type="matrix" values="0 0 0 0 0 0 0 0 0 0 0 0 0 0 0 0 0 0 0.59 0"/>
<feBlend mode="normal" in2="BackgroundImageFix" result="effect1_dropShadow_12_6"/>
<feBlend mode="normal" in="SourceGraphic" in2="effect1_dropShadow_12_6" result="shape"/>
</filter>
<clipPath id="clip0_12_6">
<rect width="88" height="76" fill="white"/>
</clipPath>
</defs>
</svg>
