<svg width="86" height="76" viewBox="0 0 86 76" fill="none" xmlns="http://www.w3.org/2000/svg">
<mask id="path-1-outside-1_5_22" maskUnits="userSpaceOnUse" x="2" y="14" width="72" height="61" fill="black">
<rect fill="white" x="2" y="14" width="72" height="61"/>
<path fill-rule="evenodd" clip-rule="evenodd" d="M57.7685 17H8C6.34315 17 5 18.3431 5 20V69C5 70.6569 6.34315 72 8 72H68C69.6569 72 71 70.6569 71 69V26.6136L65 32.3304V66H11V23H51.4712L57.7685 17Z"/>
</mask>
<path fill-rule="evenodd" clip-rule="evenodd" d="M57.7685 17H8C6.34315 17 5 18.3431 5 20V69C5 70.6569 6.34315 72 8 72H68C69.6569 72 71 70.6569 71 69V26.6136L65 32.3304V66H11V23H51.4712L57.7685 17Z" fill="white"/>
<path d="M57.7685 17L59.8379 19.172L65.2661 14H57.7685V17ZM71 26.6136H74V19.6115L68.9306 24.4417L71 26.6136ZM65 32.3304L62.9306 30.1585L62 31.0451V32.3304H65ZM65 66V69H68V66H65ZM11 66H8V69H11V66ZM11 23V20H8V23H11ZM51.4712 23V26H52.6716L53.5406 25.172L51.4712 23ZM57.7685 14H8V20H57.7685V14ZM8 14C4.68629 14 2 16.6863 2 20H8L8 20V14ZM2 20V69H8V20H2ZM2 69C2 72.3137 4.68629 75 8 75V69H8H2ZM8 75H68V69H8V75ZM68 75C71.3137 75 74 72.3137 74 69H68V75ZM74 69V26.6136H68V69H74ZM68.9306 24.4417L62.9306 30.1585L67.0694 34.5024L73.0694 28.7856L68.9306 24.4417ZM68 66V32.3304H62V66H68ZM11 69H65V63H11V69ZM8 23V66H14V23H8ZM51.4712 20H11V26H51.4712V20ZM53.5406 25.172L59.8379 19.172L55.699 14.828L49.4018 20.828L53.5406 25.172Z" fill="white" mask="url(#path-1-outside-1_5_22)"/>
<rect x="55.1862" y="3.88795" width="28.9543" height="9.56868" rx="4" transform="rotate(-3.73862 55.1862 3.88795)" fill="white"/>
<rect x="43.4257" y="36.2873" width="42.5257" height="7.93802" rx="3.96901" transform="rotate(-43.9147 43.4257 36.2873)" fill="white"/>
<rect x="84.6843" y="4.20032" width="26.1221" height="7.93802" rx="3.96901" transform="rotate(96.1351 84.6843 4.20032)" fill="white"/>
</svg>
