<svg width="88" height="76" viewBox="0 0 88 76" fill="none" xmlns="http://www.w3.org/2000/svg">
<g clip-path="url(#clip0_12_3)">
<path d="M65.7023 34.3454C67.5402 36.0183 67.6739 38.8644 66.0009 40.7023L38.7385 70.6524C37.0655 72.4903 34.2194 72.624 32.3815 70.951C30.5436 69.2781 30.4099 66.432 32.0829 64.5941L56.3162 37.9718L29.6939 13.7385C27.856 12.0655 27.7223 9.21941 29.3953 7.38153C31.0682 5.54364 33.9143 5.40994 35.7522 7.0829L65.7023 34.3454ZM61.0493 33.2445L62.462 33.1781L62.8843 42.1682L61.4717 42.2346L61.0493 33.2445Z" fill="black" fill-opacity="0.76"/>
<g filter="url(#filter0_d_12_3)">
<path d="M64.4418 34.3454C66.2797 36.0183 66.4134 38.8644 64.7404 40.7023L37.478 70.6524C35.805 72.4903 32.9589 72.624 31.121 70.951C29.2831 69.2781 29.1494 66.432 30.8224 64.5941L55.0557 37.9718L28.4334 13.7385C26.5955 12.0655 26.4618 9.21941 28.1348 7.38153C29.8077 5.54364 32.6538 5.40994 34.4917 7.0829L64.4418 34.3454ZM59.7888 33.2445L61.2015 33.1781L61.6238 42.1682L60.2112 42.2346L59.7888 33.2445Z" fill="white"/>
</g>
</g>
<defs>
<filter id="filter0_d_12_3" x="19.9625" y="2.91066" width="46.9501" height="74.2126" filterUnits="userSpaceOnUse" color-interpolation-filters="sRGB">
<feFlood flood-opacity="0" result="BackgroundImageFix"/>
<feColorMatrix in="SourceAlpha" type="matrix" values="0 0 0 0 0 0 0 0 0 0 0 0 0 0 0 0 0 0 127 0" result="hardAlpha"/>
<feOffset dx="-3" dy="1"/>
<feGaussianBlur stdDeviation="2"/>
<feComposite in2="hardAlpha" operator="out"/>
<feColorMatrix type="matrix" values="0 0 0 0 0 0 0 0 0 0 0 0 0 0 0 0 0 0 0.59 0"/>
<feBlend mode="normal" in2="BackgroundImageFix" result="effect1_dropShadow_12_3"/>
<feBlend mode="normal" in="SourceGraphic" in2="effect1_dropShadow_12_3" result="shape"/>
</filter>
<clipPath id="clip0_12_3">
<rect width="88" height="76" fill="white"/>
</clipPath>
</defs>
</svg>
